OpenSim_Sub06_CSBaseline_RCS.mot
version=1
nRows=60
nColumns=11
inDegrees=no
endheader
time	Top_Thigh	Med_Thigh	Bot_Thigh	Top_Shank	2nd_Top_Shank	2nd_Bot_Shank	Bot_Shank	BNOx	BNOy	BNOZ
42.46000000	1837.00952390	2036.88562050	1723.93700716	1356.68075889	1360.21966042	1186.79778839	1233.03402574	69.94907659	-66.22388196	-58.67095355
42.47000000	1835.23984490	2036.72601164	1723.36465873	1357.36251240	1360.08277836	1184.67019871	1233.06170143	71.47670800	-66.33418815	-8.41160799
42.48000000	1833.22234297	2035.94184426	1722.64336565	1357.98251405	1359.86994466	1182.48189799	1232.90007281	72.86726011	-66.41207276	40.36467796
42.49000000	1831.16265563	2034.61726300	1722.03465103	1358.49599597	1359.61614249	1180.36258550	1232.56995971	74.06744165	-66.46611059	85.53558762
42.50000000	1829.26642039	2032.83641247	1721.80003797	1358.85819027	1359.35635504	1178.44196057	1232.09218197	75.02396135	-66.50487641	124.97880433
42.51000000	1827.73927475	2030.68343732	1722.20104957	1359.02432907	1359.12556547	1176.84972250	1231.48755942	75.68352795	-66.53694501	156.57201138
42.52000000	1826.78517986	2028.24273790	1723.49572806	1358.95030306	1358.95851393	1175.71452624	1230.77707164	75.99362065	-66.57086364	178.21293155
42.53000000	1826.47839626	2025.61850179	1725.67279778	1358.64295788	1358.87113756	1175.08422613	1229.99405751	75.96133021	-66.61304707	189.34974589
42.54000000	1826.67333294	2022.94845719	1728.26447060	1358.19551132	1358.84750103	1174.86971372	1229.19280573	75.69479313	-66.66629546	192.05876995
42.55000000	1827.20310291	2020.37358123	1730.75873816	1357.70954761	1358.86858168	1174.96861368	1228.42963435	75.31193372	-66.73305884	188.67089430
42.56000000	1827.90081918	2018.03485103	1732.64359212	1357.28665101	1358.91535686	1175.27855065	1227.76086140	74.93067630	-66.81578724	181.51700949
42.57000000	1828.59959478	2016.07324373	1733.40702413	1357.02840576	1358.96880392	1175.69714928	1227.24280492	74.66894517	-66.91693067	172.92800607
42.58000000	1829.13355866	2014.62874201	1732.54142676	1357.03551383	1359.01001239	1176.12248819	1226.93128270	74.64386697	-67.03890705	165.22260224
42.59000000	1829.41544547	2013.76438786	1729.87969425	1357.34041552	1359.02875138	1176.48777105	1226.84340722	74.91085077	-67.18165075	159.77773613
42.60000000	1829.49123189	2013.41280341	1725.83189472	1357.85984283	1359.02950254	1176.78574084	1226.93068287	75.42069016	-67.34088627	156.37396324
42.61000000	1829.41980113	2013.49397767	1720.86400443	1358.49931964	1359.01817262	1177.01490784	1227.13825887	76.11404507	-67.51193033	154.63720503
42.62000000	1829.26003639	2013.92789963	1715.44199961	1359.16436985	1359.00066839	1177.17378234	1227.41128445	76.93157548	-67.69009967	154.19338293
42.63000000	1829.07082089	2014.63455829	1710.03185652	1359.76051733	1358.98289661	1177.26087464	1227.69490884	77.81394133	-67.87071099	154.66841841
42.64000000	1828.91103783	2015.53394263	1705.09955141	1360.19328597	1358.97076405	1177.27469501	1227.93428126	78.70180258	-68.04908104	155.68823290
42.65000000	1828.83957043	2016.54604165	1701.11106054	1360.36819967	1358.97017748	1177.21375374	1228.07455093	79.53581919	-68.22052653	156.87874785
42.66000000	1828.91530189	2017.59084436	1698.53236014	1360.19078230	1358.98704365	1177.07656112	1228.06086709	80.25665111	-68.38036418	157.86588472
42.67000000	1829.19225679	2018.58967924	1697.79705140	1359.57619267	1359.02641232	1176.86328684	1227.84192518	80.80881304	-68.52429815	158.29338553
42.68000000	1829.65176000	2019.48391783	1698.85430840	1358.58375657	1359.08050979	1176.59893026	1227.41948248	81.19449789	-68.65382945	158.07164130
42.69000000	1830.21917207	2020.23036084	1701.28039228	1357.38377984	1359.13169086	1176.32760463	1226.83614342	81.46029940	-68.77492158	157.31630987
42.70000000	1830.81841393	2020.78620583	1704.64197159	1356.14942308	1359.16205639	1176.09391491	1226.13556316	81.65395345	-68.89365281	156.14832930
42.71000000	1831.37340650	2021.10865041	1708.50571486	1355.05384691	1359.15370725	1175.94246604	1225.36139684	81.82319593	-69.01610142	154.68863764
42.72000000	1831.80807074	2021.15489216	1712.43829063	1354.27021195	1359.08874428	1175.91786296	1224.55729961	82.01576272	-69.14834568	153.05817293
42.73000000	1832.04715467	2020.88260057	1716.00888212	1353.97021843	1358.94951636	1176.06405646	1223.76683490	82.27910767	-69.29641513	151.37722895
42.74000000	1832.07939945	2020.28595713	1718.98123551	1354.21257700	1358.73755997	1176.37438479	1223.02646835	82.63886430	-69.46256722	149.71625131
42.75000000	1832.00201902	2019.42103366	1721.44889465	1354.86447304	1358.48693594	1176.75639445	1222.36063449	83.08367909	-69.64266556	148.06118961
42.76000000	1831.92273459	2018.34989702	1723.53734933	1355.77453982	1358.23485558	1177.10932170	1221.79260240	83.59861581	-69.83195440	146.38980869
42.77000000	1831.94926733	2017.13461405	1725.37208934	1356.79141059	1358.01853021	1177.33240279	1221.34564118	84.16873820	-70.02567799	144.67987340
42.78000000	1832.18933844	2015.83725162	1727.07860449	1357.76371860	1357.87517116	1177.32487397	1221.04301993	84.77910999	-70.21908058	142.90914858
42.79000000	1832.75066912	2014.51987658	1728.78238457	1358.54009711	1357.84198972	1176.98597151	1220.90800775	85.41479494	-70.40740641	141.05539908
42.80000000	1833.74098056	2013.24455577	1730.60891937	1358.96917937	1357.95619723	1176.21493167	1220.96387374	86.06085679	-70.58589974	139.09638974
42.81000000	1835.22351091	2012.06809471	1732.65436378	1358.92636612	1358.24498383	1174.93181275	1221.22165032	86.70450679	-70.74896448	137.00984717
42.82000000	1836.93274092	2011.00841432	1734.79806930	1358.48488653	1358.66147701	1173.21056120	1221.60193325	87.34882756	-70.88479392	134.77321533
42.83000000	1838.45580129	2010.06600734	1736.82221553	1357.80663709	1359.12560916	1171.19409652	1221.98478433	88.00401533	-70.97879773	132.36381147
42.84000000	1839.37912768	2009.24128429	1738.50852371	1357.05393250	1359.55715609	1169.02566359	1222.25007414	88.68029986	-71.01637245	129.75895228
42.85000000	1839.28915575	2008.53465569	1739.63871506	1356.38908748	1359.87589359	1166.84850728	1222.27767327	89.38791093	-70.98291463	126.93595441
42.86000000	1837.77246989	2007.94654620	1739.99459627	1355.97437284	1360.00162629	1164.80585217	1221.94748087	90.13707828	-70.86382273	123.87215270
42.87000000	1834.61305000	2007.49613828	1739.47135284	1355.91381113	1359.89237802	1163.01399458	1221.17729763	90.93796935	-70.64705917	120.56896884
42.88000000	1830.18140983	2007.25835064	1738.30106005	1356.13834798	1359.61973592	1161.50921720	1219.99754345	91.80056661	-70.32820475	117.09939537
42.89000000	1824.95650419	2007.31840678	1736.77807889	1356.54692980	1359.27628321	1160.31300944	1218.45945981	92.73481828	-69.90424878	113.54965721
42.90000000	1819.41728788	2007.76153016	1735.19677039	1357.03850301	1358.95460312	1159.44686070	1216.61428821	93.75067260	-69.37218058	110.00597926
42.91000000	1814.04271574	2008.67294428	1733.85149554	1357.51201399	1358.74727887	1158.93226038	1214.51327011	94.85807780	-68.72898947	106.55458642
42.92000000	1809.31174257	2010.13787262	1733.03661536	1357.86640916	1358.74689370	1158.79069790	1212.20764700	96.06698213	-67.97166478	103.28170360
42.93000000	1805.70320191	2012.24149291	1733.04638437	1358.00066480	1359.04599214	1159.04365408	1209.74867290	97.38732445	-67.09720399	100.27352850
42.94000000	1803.53497838	2015.00826457	1734.03376974	1357.85340153	1359.68575846	1159.70124499	1207.20423829	98.81660208	-66.11346254	97.58017072
42.95000000	1802.64671889	2018.28223077	1735.73192238	1357.48103780	1360.55476705	1160.73981770	1204.69166674	100.31534404	-65.06055874	95.14450894
42.96000000	1802.78965155	2021.87407853	1737.79637567	1356.96177102	1361.51337703	1162.12947597	1202.33742118	101.83724446	-63.98457579	92.88959652
42.97000000	1803.71500444	2025.59449485	1739.88266296	1356.37379864	1362.42194754	1163.84032353	1200.26796457	103.33599748	-62.93159690	90.73848678
42.98000000	1805.17400568	2029.25416674	1741.64631763	1355.79531810	1363.14083772	1165.84246412	1198.60975986	104.76529725	-61.94770527	88.61423306
42.99000000	1806.91788337	2032.66378120	1742.74287304	1355.30452681	1363.53040670	1168.10600149	1197.48927000	106.07883789	-61.07898411	86.43988872
43.00000000	1808.69786561	2035.63402524	1742.82786255	1354.97962222	1363.45101361	1170.60103938	1197.03295794	107.23031355	-60.37151663	84.13850707
43.01000000	1810.26518050	2037.97558587	1741.55681954	1354.89880176	1362.76301761	1173.29768152	1197.36728663	108.17341836	-59.87138604	81.63314147
43.02000000	1811.37511600	2039.50357553	1738.59658142	1355.13836022	1361.33442218	1176.16541797	1198.61487229	108.86280223	-59.62389205	78.85249242
43.03000000	1811.94078681	2040.20514599	1734.05343085	1355.70062716	1359.33040557	1179.14988195	1200.74878896	109.29027040	-59.64387618	75.94479393
43.04000000	1812.08033018	2040.29093412	1728.60450538	1356.49184867	1357.30218656	1182.16571578	1203.54785015	109.49589423	-59.90661371	73.34346181
43.05000000	1811.92558533	2039.98651270	1722.96509373	1357.41184945	1355.82678362	1185.12549061	1206.77788662	109.52297079	-60.38473561	71.50097104
